<svg width="15" height="15" viewBox="0 0 15 15" fill="none" xmlns="http://www.w3.org/2000/svg">
<path fill-rule="evenodd" clip-rule="evenodd" d="M4.53125 6.25C4.53125 5.46264 4.84403 4.70753 5.40078 4.15078C5.95753 3.59403 6.71264 3.28125 7.5 3.28125C8.28736 3.28125 9.04247 3.59403 9.59922 4.15078C10.156 4.70753 10.4688 5.46264 10.4688 6.25C10.4688 7.03736 10.156 7.79247 9.59922 8.34922C9.04247 8.90597 8.28736 9.21875 7.5 9.21875C6.71264 9.21875 5.95753 8.90597 5.40078 8.34922C4.84403 7.79247 4.53125 7.03736 4.53125 6.25ZM7.5 4.21875C6.96128 4.21875 6.44462 4.43276 6.06369 4.81369C5.68276 5.19462 5.46875 5.71128 5.46875 6.25C5.46875 6.78872 5.68276 7.30538 6.06369 7.68631C6.44462 8.06724 6.96128 8.28125 7.5 8.28125C8.03872 8.28125 8.55538 8.06724 8.93631 7.68631C9.31724 7.30538 9.53125 6.78872 9.53125 6.25C9.53125 5.71128 9.31724 5.19462 8.93631 4.81369C8.55538 4.43276 8.03872 4.21875 7.5 4.21875Z" fill="black"/>
<path fill-rule="evenodd" clip-rule="evenodd" d="M2.20249 5.53563C2.30932 4.23988 2.89951 3.03168 3.85587 2.15092C4.81224 1.27016 6.06485 0.781246 7.36499 0.78125H7.63499C8.93514 0.781246 10.1877 1.27016 11.1441 2.15092C12.1005 3.03168 12.6907 4.23988 12.7975 5.53563C12.9164 6.97893 12.4705 8.41204 11.5537 9.53312L8.55812 13.1962C8.42992 13.353 8.26848 13.4793 8.08549 13.5661C7.90249 13.6528 7.70251 13.6978 7.49999 13.6978C7.29748 13.6978 7.09749 13.6528 6.91449 13.5661C6.7315 13.4793 6.57007 13.353 6.44187 13.1962L3.44624 9.53312C2.52944 8.41207 2.08354 6.97893 2.20249 5.53563ZM7.36499 1.71875C6.30029 1.71891 5.27458 2.11939 4.49144 2.8407C3.70831 3.56201 3.22501 4.5514 3.13749 5.6125C3.03849 6.81366 3.40954 8.00637 4.17249 8.93937L7.16812 12.6031C7.20839 12.6524 7.25911 12.6921 7.31662 12.7194C7.37412 12.7467 7.43697 12.7608 7.50062 12.7608C7.56426 12.7608 7.62711 12.7467 7.68462 12.7194C7.74212 12.6921 7.79285 12.6524 7.83312 12.6031L10.8287 8.93937C11.5912 8.00618 11.9618 6.8135 11.8625 5.6125C11.775 4.5513 11.2916 3.56181 10.5083 2.84049C9.72504 2.11917 8.69917 1.71875 7.63437 1.71875H7.36437H7.36499Z" fill="black"/>
</svg>
