<svg width="32" height="38" viewBox="0 0 32 38" fill="none" xmlns="http://www.w3.org/2000/svg">
<path d="M28.25 26.75V17.65C27.375 17.825 26.5 18 25.625 18H24.75V28.5H7.25V16.25C7.25 11.35 11.1 7.5 16 7.5C16.175 5.225 17.225 3.3 18.625 1.725C18.1 1.025 17.05 0.5 16 0.5C14.075 0.5 12.5 2.075 12.5 4V4.525C7.25 6.1 3.75 10.825 3.75 16.25V26.75L0.25 30.25V32H31.75V30.25L28.25 26.75ZM12.5 33.75C12.5 35.675 14.075 37.25 16 37.25C17.925 37.25 19.5 35.675 19.5 33.75H12.5ZM31.75 8.375C31.75 11.7 28.95 14.5 25.625 14.5C22.3 14.5 19.5 11.7 19.5 8.375C19.5 5.05 22.3 2.25 25.625 2.25C28.95 2.25 31.75 5.05 31.75 8.375Z" fill="#444444"/>
</svg>
