<svg width="53" height="49" viewBox="0 0 53 49" fill="none" xmlns="http://www.w3.org/2000/svg">
<path d="M15.6111 10.75H7.44444C6.00049 10.75 4.61567 11.3295 3.59464 12.3609C2.57361 13.3924 2 14.7913 2 16.25V41C2 42.4587 2.57361 43.8576 3.59464 44.8891C4.61567 45.9205 6.00049 46.5 7.44444 46.5H45.5556C46.9995 46.5 48.3843 45.9205 49.4054 44.8891C50.4264 43.8576 51 42.4587 51 41V16.25C51 14.7913 50.4264 13.3924 49.4054 12.3609C48.3843 11.3295 46.9995 10.75 45.5556 10.75H37.3889M34.6667 21.75L26.5 30M26.5 30L18.3333 21.75M26.5 30V2.5" stroke="#111111" stroke-width="4" stroke-linecap="round" stroke-linejoin="round"/>
</svg>
