<svg width="16" height="15" viewBox="0 0 16 15" fill="none" xmlns="http://www.w3.org/2000/svg">
<g clip-path="url(#clip0_198_3706)">
<path d="M15.0404 0.303722C14.9969 0.195356 14.9133 0.107936 14.807 0.0596506C14.7006 0.0113647 14.5798 0.00592977 14.4696 0.0444764C14.3593 0.0830231 14.2682 0.162583 14.2152 0.266606C14.1621 0.370629 14.1512 0.491105 14.1847 0.602972C14.8814 2.60547 13.4984 4.10097 12.4439 4.90197L12.0179 4.29147C11.8747 4.08672 11.5544 3.91647 11.3054 3.91347L8.91443 3.92397C8.62234 3.93279 8.33807 4.02038 8.09168 4.17747L1.04618 9.11772C0.882297 9.23304 0.77079 9.4086 0.73607 9.60596C0.701349 9.80332 0.746244 10.0064 0.860925 10.1707L4.06268 14.7517C4.30268 15.093 4.68593 15.0517 5.02793 14.8132L12.0734 9.87222C12.2759 9.72897 12.5099 9.41997 12.5924 9.18372L13.3409 6.82497C13.4234 6.58947 13.3732 6.23022 13.2299 6.02547L12.9704 5.65347C14.3864 4.56822 15.8564 2.65047 15.0404 0.303722ZM11.7622 7.32222C11.6324 7.41308 11.486 7.47747 11.3313 7.51171C11.1766 7.54596 11.0167 7.54939 10.8606 7.52181C10.7046 7.49423 10.5556 7.43617 10.422 7.35097C10.2884 7.26576 10.173 7.15507 10.0822 7.02522C9.89837 6.76246 9.82633 6.43751 9.88188 6.1217C9.93742 5.80588 10.116 5.525 10.3784 5.34072C10.5842 5.19658 10.8298 5.12033 11.081 5.12261C11.3322 5.1249 11.5764 5.20561 11.7794 5.35347C11.5754 5.47647 11.4352 5.54847 11.4089 5.55972C11.316 5.60405 11.2408 5.67864 11.1958 5.77128C11.1507 5.86391 11.1385 5.96909 11.1611 6.06959C11.1837 6.17008 11.2397 6.25993 11.32 6.3244C11.4003 6.38888 11.5002 6.42416 11.6032 6.42447C11.6677 6.42447 11.7337 6.40947 11.7959 6.38022C11.9414 6.31122 12.0974 6.22947 12.2602 6.13272C12.2976 6.35777 12.2707 6.58881 12.1826 6.79925C12.0945 7.00969 11.9488 7.19097 11.7622 7.32222Z" fill="black"/>
</g>
<defs>
<clipPath id="clip0_198_3706">
<rect width="15" height="15" fill="white" transform="translate(0.5)"/>
</clipPath>
</defs>
</svg>
