<svg width="68" height="68" viewBox="0 0 68 68" fill="none" xmlns="http://www.w3.org/2000/svg">
<path fill-rule="evenodd" clip-rule="evenodd" d="M33.9984 39.0999C37.6054 39.0999 41.0646 37.6671 43.6151 35.1166C46.1656 32.5661 47.5984 29.1068 47.5984 25.4999C47.5984 21.893 46.1656 18.4337 43.6151 15.8832C41.0646 13.3328 37.6054 11.8999 33.9984 11.8999C30.3915 11.8999 26.9323 13.3328 24.3818 15.8832C21.8313 18.4337 20.3984 21.893 20.3984 25.4999C20.3984 29.1068 21.8313 32.5661 24.3818 35.1166C26.9323 37.6671 30.3915 39.0999 33.9984 39.0999ZM33.9984 35.6999C35.3379 35.6999 36.6643 35.4361 37.9018 34.9235C39.1393 34.4109 40.2638 33.6596 41.2109 32.7124C42.1581 31.7652 42.9094 30.6408 43.422 29.4033C43.9346 28.1658 44.1984 26.8394 44.1984 25.4999C44.1984 24.1604 43.9346 22.8341 43.422 21.5965C42.9094 20.359 42.1581 19.2346 41.2109 18.2874C40.2638 17.3403 39.1393 16.5889 37.9018 16.0763C36.6643 15.5637 35.3379 15.2999 33.9984 15.2999C31.2932 15.2999 28.6988 16.3745 26.7859 18.2874C24.8731 20.2003 23.7984 22.7947 23.7984 25.4999C23.7984 28.2051 24.8731 30.7995 26.7859 32.7124C28.6988 34.6253 31.2932 35.6999 33.9984 35.6999Z" fill="black"/>
<path fill-rule="evenodd" clip-rule="evenodd" d="M68 34C68 52.7782 52.7782 68 34 68C15.2218 68 0 52.7782 0 34C0 15.2218 15.2218 0 34 0C52.7782 0 68 15.2218 68 34ZM50.371 59.857C45.4766 62.9639 39.7972 64.6093 34 64.6C28.0638 64.6095 22.2543 62.8842 17.2856 59.636C16.8776 59.126 16.4645 58.599 16.0446 58.055C15.5593 57.4174 15.2976 56.6377 15.3 55.8365C15.3 54.0056 16.6158 52.4705 18.3753 52.2138C30.0118 50.5138 38.0239 50.66 49.6757 52.2733C50.5195 52.3956 51.2906 52.8191 51.8465 53.4657C52.4024 54.1122 52.7055 54.938 52.7 55.7906C52.7 56.6066 52.4195 57.3988 51.9129 58.0176C51.391 58.6534 50.8759 59.2671 50.371 59.857ZM56.0745 55.1922C55.8025 52.0098 53.3868 49.3544 50.1415 48.9056C38.2143 47.2549 29.8775 47.0968 17.884 48.8495C14.62 49.3255 12.2145 52.0047 11.9289 55.1956C6.44695 49.5024 3.3892 41.9034 3.4 34C3.4 17.1003 17.1003 3.4 34 3.4C50.8997 3.4 64.6 17.1003 64.6 34C64.6108 41.9018 61.5544 49.4993 56.0745 55.1922Z" fill="black"/>
</svg>
