<svg width="25" height="24" viewBox="0 0 25 24" fill="none" xmlns="http://www.w3.org/2000/svg">
<path d="M4.5 8.00001H12.95H12.5H12.85H4.5ZM4.9 6.00001H18.1L17.25 5.00001H5.75L4.9 6.00001ZM9.5 12.75L11.5 11.75L13.5 12.75V8.00001H9.5V12.75ZM14.05 21H4.5C3.95 21 3.479 20.804 3.087 20.412C2.695 20.02 2.49934 19.5493 2.5 19V6.52501C2.5 6.29167 2.53767 6.06667 2.613 5.85001C2.68833 5.63334 2.80067 5.43334 2.95 5.25001L4.2 3.72501C4.38333 3.49167 4.61234 3.31234 4.887 3.18701C5.16167 3.06167 5.44934 2.99934 5.75 3.00001H17.25C17.55 3.00001 17.8377 3.06267 18.113 3.18801C18.3883 3.31334 18.6173 3.49234 18.8 3.72501L20.05 5.25001C20.2 5.43334 20.3127 5.63334 20.388 5.85001C20.4633 6.06667 20.5007 6.29167 20.5 6.52501V11.425C20.1833 11.3083 19.8583 11.2167 19.525 11.15C19.1917 11.0833 18.85 11.05 18.5 11.05V8.00001H15.5V11.825C14.9167 12.1583 14.4083 12.571 13.975 13.063C13.5417 13.555 13.2 14.109 12.95 14.725L11.5 14L7.5 16V8.00001H4.5V19H12.85C12.9833 19.3833 13.15 19.7417 13.35 20.075C13.55 20.4083 13.7833 20.7167 14.05 21ZM17.5 21V18H14.5V16H17.5V13H19.5V16H22.5V18H19.5V21H17.5Z" fill="#F1F1F1"/>
</svg>
