<svg width="15" height="16" viewBox="0 0 15 16" fill="none" xmlns="http://www.w3.org/2000/svg">
<path d="M9.0625 9.875C9.40625 9.875 9.70063 9.7525 9.94563 9.5075C10.1906 9.2625 10.3129 8.96833 10.3125 8.625C10.3125 8.28125 10.19 7.98688 9.945 7.74187C9.7 7.49687 9.40583 7.37458 9.0625 7.375C8.90625 7.375 8.75771 7.40375 8.61687 7.46125C8.47604 7.51875 8.34854 7.59417 8.23438 7.6875L6.5625 6.84375V6.65625L8.23438 5.8125C8.34896 5.90625 8.47667 5.98187 8.6175 6.03937C8.75833 6.09687 8.90667 6.12542 9.0625 6.125C9.40625 6.125 9.70063 6.0025 9.94563 5.7575C10.1906 5.5125 10.3129 5.21833 10.3125 4.875C10.3125 4.53125 10.19 4.23687 9.945 3.99187C9.7 3.74687 9.40583 3.62458 9.0625 3.625C8.71875 3.625 8.42438 3.7475 8.17937 3.9925C7.93437 4.2375 7.81208 4.53167 7.8125 4.875V4.96875L6.14062 5.8125C6.02604 5.71875 5.89833 5.64313 5.7575 5.58563C5.61667 5.52813 5.46833 5.49958 5.3125 5.5C4.96875 5.5 4.67437 5.6225 4.42937 5.8675C4.18438 6.1125 4.06208 6.40667 4.0625 6.75C4.0625 7.09375 4.185 7.38812 4.43 7.63313C4.675 7.87813 4.96917 8.00042 5.3125 8C5.46875 8 5.61729 7.97125 5.75813 7.91375C5.89896 7.85625 6.02646 7.78083 6.14062 7.6875L7.8125 8.53125V8.625C7.8125 8.96875 7.935 9.26312 8.18 9.50813C8.425 9.75313 8.71917 9.87542 9.0625 9.875ZM1.25 14.25V1.75H13.75V11.75H3.75L1.25 14.25ZM3.21875 10.5H12.5V3H2.5V11.2031L3.21875 10.5Z" fill="#EFEEEE"/>
</svg>
