<svg width="30" height="31" viewBox="0 0 30 31" fill="none" xmlns="http://www.w3.org/2000/svg">
<g id="material-symbols:share">
<path id="Vector" d="M22.5 28C21.4583 28 20.5729 27.6354 19.8438 26.9062C19.1146 26.1771 18.75 25.2917 18.75 24.25C18.75 24.1042 18.7604 23.9529 18.7812 23.7962C18.8021 23.6396 18.8333 23.4992 18.875 23.375L10.0625 18.25C9.70833 18.5625 9.3125 18.8075 8.875 18.985C8.4375 19.1625 7.97917 19.2508 7.5 19.25C6.45833 19.25 5.57292 18.8854 4.84375 18.1562C4.11458 17.4271 3.75 16.5417 3.75 15.5C3.75 14.4583 4.11458 13.5729 4.84375 12.8438C5.57292 12.1146 6.45833 11.75 7.5 11.75C7.97917 11.75 8.4375 11.8388 8.875 12.0163C9.3125 12.1938 9.70833 12.4383 10.0625 12.75L18.875 7.625C18.8333 7.5 18.8021 7.35958 18.7812 7.20375C18.7604 7.04792 18.75 6.89667 18.75 6.75C18.75 5.70833 19.1146 4.82292 19.8438 4.09375C20.5729 3.36458 21.4583 3 22.5 3C23.5417 3 24.4271 3.36458 25.1562 4.09375C25.8854 4.82292 26.25 5.70833 26.25 6.75C26.25 7.79167 25.8854 8.67708 25.1562 9.40625C24.4271 10.1354 23.5417 10.5 22.5 10.5C22.0208 10.5 21.5625 10.4117 21.125 10.235C20.6875 10.0583 20.2917 9.81333 19.9375 9.5L11.125 14.625C11.1667 14.75 11.1979 14.8908 11.2188 15.0475C11.2396 15.2042 11.25 15.355 11.25 15.5C11.25 15.6458 11.2396 15.7971 11.2188 15.9537C11.1979 16.1104 11.1667 16.2508 11.125 16.375L19.9375 21.5C20.2917 21.1875 20.6875 20.9429 21.125 20.7662C21.5625 20.5896 22.0208 20.5008 22.5 20.5C23.5417 20.5 24.4271 20.8646 25.1562 21.5938C25.8854 22.3229 26.25 23.2083 26.25 24.25C26.25 25.2917 25.8854 26.1771 25.1562 26.9062C24.4271 27.6354 23.5417 28 22.5 28Z" fill="#545454"/>
</g>
</svg>
