<svg width="60" height="60" viewBox="0 0 60 60" fill="none" xmlns="http://www.w3.org/2000/svg">
<g id="mdi:linkedin">
<path id="Vector" d="M47.5026 7.5C48.8286 7.5 50.1004 8.02678 51.0381 8.96447C51.9758 9.90215 52.5026 11.1739 52.5026 12.5V47.5C52.5026 48.8261 51.9758 50.0979 51.0381 51.0355C50.1004 51.9732 48.8286 52.5 47.5026 52.5H12.5026C11.1765 52.5 9.90471 51.9732 8.96703 51.0355C8.02935 50.0979 7.50256 48.8261 7.50256 47.5V12.5C7.50256 11.1739 8.02935 9.90215 8.96703 8.96447C9.90471 8.02678 11.1765 7.5 12.5026 7.5H47.5026ZM46.2526 46.25V33C46.2526 30.8385 45.3939 28.7655 43.8655 27.2371C42.3371 25.7087 40.2641 24.85 38.1026 24.85C35.9776 24.85 33.5026 26.15 32.3026 28.1V25.325H25.3276V46.25H32.3026V33.925C32.3026 32 33.8526 30.425 35.7776 30.425C36.7058 30.425 37.5961 30.7937 38.2524 31.4501C38.9088 32.1065 39.2776 32.9967 39.2776 33.925V46.25H46.2526ZM17.2026 21.4C18.3165 21.4 19.3848 20.9575 20.1724 20.1698C20.9601 19.3822 21.4026 18.3139 21.4026 17.2C21.4026 14.875 19.5276 12.975 17.2026 12.975C16.082 12.975 15.0074 13.4201 14.215 14.2125C13.4227 15.0048 12.9776 16.0795 12.9776 17.2C12.9776 19.525 14.8776 21.4 17.2026 21.4ZM20.6776 46.25V25.325H13.7526V46.25H20.6776Z" fill="#F8F8F8"/>
</g>
</svg>
