<svg width="60" height="60" viewBox="0 0 60 60" fill="none" xmlns="http://www.w3.org/2000/svg">
<g id="ph:x-fill">
<path id="Vector" d="M48.7526 7.5H11.2526C10.258 7.5 9.30417 7.89509 8.60091 8.59835C7.89765 9.30161 7.50256 10.2554 7.50256 11.25V48.75C7.50256 49.7446 7.89765 50.6984 8.60091 51.4016C9.30417 52.1049 10.258 52.5 11.2526 52.5H48.7526C49.7471 52.5 50.701 52.1049 51.4042 51.4016C52.1075 50.6984 52.5026 49.7446 52.5026 48.75V11.25C52.5026 10.2554 52.1075 9.30161 51.4042 8.59835C50.701 7.89509 49.7471 7.5 48.7526 7.5ZM42.5791 39.9234C42.7533 40.0976 42.8915 40.3045 42.9858 40.5321C43.0801 40.7597 43.1286 41.0036 43.1286 41.25C43.1286 41.4964 43.0801 41.7403 42.9858 41.9679C42.8915 42.1955 42.7533 42.4024 42.5791 42.5766C42.4049 42.7508 42.1981 42.889 41.9705 42.9832C41.7429 43.0775 41.4989 43.126 41.2526 43.126C41.0062 43.126 40.7622 43.0775 40.5346 42.9832C40.307 42.889 40.1002 42.7508 39.926 42.5766L30.0026 32.6508L20.0791 42.5766C19.7273 42.9284 19.2501 43.126 18.7526 43.126C18.255 43.126 17.7778 42.9284 17.426 42.5766C17.0742 42.2247 16.8765 41.7476 16.8765 41.25C16.8765 40.7524 17.0742 40.2753 17.426 39.9234L27.3518 30L17.426 20.0766C17.0742 19.7247 16.8765 19.2476 16.8765 18.75C16.8765 18.2524 17.0742 17.7753 17.426 17.4234C17.7778 17.0716 18.255 16.874 18.7526 16.874C19.2501 16.874 19.7273 17.0716 20.0791 17.4234L30.0026 27.3492L39.926 17.4234C40.2778 17.0716 40.755 16.874 41.2526 16.874C41.7501 16.874 42.2273 17.0716 42.5791 17.4234C42.931 17.7753 43.1286 18.2524 43.1286 18.75C43.1286 19.2476 42.931 19.7247 42.5791 20.0766L32.6533 30L42.5791 39.9234Z" fill="#F8F8F8"/>
</g>
</svg>
