<svg width="11" height="10" viewBox="0 0 11 10" fill="none" xmlns="http://www.w3.org/2000/svg">
<g id="ri:time-line" clip-path="url(#clip0_77_3042)">
<path id="Vector" d="M5.9401 9.16668C3.63885 9.16668 1.77344 7.30126 1.77344 5.00001C1.77344 2.69876 3.63885 0.833344 5.9401 0.833344C8.24135 0.833344 10.1068 2.69876 10.1068 5.00001C10.1068 7.30126 8.24135 9.16668 5.9401 9.16668ZM5.9401 8.33334C6.82416 8.33334 7.67201 7.98215 8.29713 7.35703C8.92225 6.73191 9.27344 5.88407 9.27344 5.00001C9.27344 4.11596 8.92225 3.26811 8.29713 2.64299C7.67201 2.01787 6.82416 1.66668 5.9401 1.66668C5.05605 1.66668 4.2082 2.01787 3.58308 2.64299C2.95796 3.26811 2.60677 4.11596 2.60677 5.00001C2.60677 5.88407 2.95796 6.73191 3.58308 7.35703C4.2082 7.98215 5.05605 8.33334 5.9401 8.33334ZM6.35677 5.00001H8.02344V5.83334H5.52344V2.91668H6.35677V5.00001Z" fill="#B2101A"/>
</g>
<defs>
<clipPath id="clip0_77_3042">
<rect width="10" height="10" fill="white" transform="translate(0.94043)"/>
</clipPath>
</defs>
</svg>
