<svg width="50" height="51" viewBox="0 0 50 51" fill="none" xmlns="http://www.w3.org/2000/svg">
<path d="M37.5 46.3337C35.7639 46.3337 34.2882 45.726 33.0729 44.5107C31.8576 43.2955 31.25 41.8198 31.25 40.0837C31.25 39.8406 31.2674 39.5885 31.3021 39.3274C31.3368 39.0663 31.3889 38.8323 31.4583 38.6253L16.7708 30.0837C16.1806 30.6045 15.5208 31.0128 14.7917 31.3087C14.0625 31.6045 13.2986 31.7517 12.5 31.7503C10.7639 31.7503 9.28819 31.1427 8.07292 29.9274C6.85764 28.7121 6.25 27.2364 6.25 25.5003C6.25 23.7642 6.85764 22.2885 8.07292 21.0732C9.28819 19.858 10.7639 19.2503 12.5 19.2503C13.2986 19.2503 14.0625 19.3982 14.7917 19.6941C15.5208 19.9899 16.1806 20.3975 16.7708 20.917L31.4583 12.3753C31.3889 12.167 31.3368 11.933 31.3021 11.6732C31.2674 11.4135 31.25 11.1614 31.25 10.917C31.25 9.18088 31.8576 7.70519 33.0729 6.48991C34.2882 5.27463 35.7639 4.66699 37.5 4.66699C39.2361 4.66699 40.7118 5.27463 41.9271 6.48991C43.1424 7.70519 43.75 9.18088 43.75 10.917C43.75 12.6531 43.1424 14.1288 41.9271 15.3441C40.7118 16.5594 39.2361 17.167 37.5 17.167C36.7014 17.167 35.9375 17.0198 35.2083 16.7253C34.4792 16.4309 33.8194 16.0225 33.2292 15.5003L18.5417 24.042C18.6111 24.2503 18.6632 24.485 18.6979 24.7462C18.7326 25.0073 18.75 25.2587 18.75 25.5003C18.75 25.7434 18.7326 25.9955 18.6979 26.2566C18.6632 26.5177 18.6111 26.7517 18.5417 26.9587L33.2292 35.5003C33.8194 34.9795 34.4792 34.5719 35.2083 34.2774C35.9375 33.983 36.7014 33.835 37.5 33.8337C39.2361 33.8337 40.7118 34.4413 41.9271 35.6566C43.1424 36.8719 43.75 38.3475 43.75 40.0837C43.75 41.8198 43.1424 43.2955 41.9271 44.5107C40.7118 45.726 39.2361 46.3337 37.5 46.3337Z" fill="#111111"/>
</svg>
