<svg width="15" height="15" viewBox="0 0 15 15" fill="none" xmlns="http://www.w3.org/2000/svg">
<g id="system-uicons:location">
<g id="Group">
<path id="Vector" fill-rule="evenodd" clip-rule="evenodd" d="M7.50007 13.2429L7.95078 12.7351C8.46221 12.1493 8.92221 11.5936 9.3315 11.0651L9.66936 10.6193C11.0801 8.71862 11.7858 7.21005 11.7858 6.09505C11.7858 3.71505 9.86721 1.78577 7.50007 1.78577C5.13293 1.78577 3.21436 3.71505 3.21436 6.09505C3.21436 7.21005 3.92007 8.71862 5.33078 10.6193L5.66864 11.0651C6.25253 11.8132 6.86341 12.5391 7.50007 13.2429Z" stroke="#B2101A" stroke-width="1.14286" stroke-linecap="round" stroke-linejoin="round"/>
<path id="Vector_2" d="M7.50007 7.8572C8.48629 7.8572 9.28578 7.0577 9.28578 6.07148C9.28578 5.08526 8.48629 4.28577 7.50007 4.28577C6.51385 4.28577 5.71436 5.08526 5.71436 6.07148C5.71436 7.0577 6.51385 7.8572 7.50007 7.8572Z" stroke="#B2101A" stroke-width="1.14286" stroke-linecap="round" stroke-linejoin="round"/>
</g>
</g>
</svg>
