<svg width="11" height="10" viewBox="0 0 11 10" fill="none" xmlns="http://www.w3.org/2000/svg">
<g id="uil:calender">
<path id="Vector" d="M8.50326 1.66668H7.66992V1.25001C7.66992 1.1395 7.62602 1.03352 7.54788 0.955382C7.46974 0.877242 7.36376 0.833344 7.25326 0.833344C7.14275 0.833344 7.03677 0.877242 6.95863 0.955382C6.88049 1.03352 6.83659 1.1395 6.83659 1.25001V1.66668H4.33659V1.25001C4.33659 1.1395 4.29269 1.03352 4.21455 0.955382C4.13641 0.877242 4.03043 0.833344 3.91992 0.833344C3.80942 0.833344 3.70343 0.877242 3.62529 0.955382C3.54715 1.03352 3.50326 1.1395 3.50326 1.25001V1.66668H2.66992C2.3384 1.66668 2.02046 1.79837 1.78604 2.03279C1.55162 2.26721 1.41992 2.58516 1.41992 2.91668V7.91668C1.41992 8.2482 1.55162 8.56614 1.78604 8.80056C2.02046 9.03498 2.3384 9.16668 2.66992 9.16668H8.50326C8.83478 9.16668 9.15272 9.03498 9.38714 8.80056C9.62156 8.56614 9.75326 8.2482 9.75326 7.91668V2.91668C9.75326 2.58516 9.62156 2.26721 9.38714 2.03279C9.15272 1.79837 8.83478 1.66668 8.50326 1.66668ZM8.91992 7.91668C8.91992 8.02718 8.87602 8.13317 8.79788 8.21131C8.71974 8.28945 8.61376 8.33334 8.50326 8.33334H2.66992C2.55942 8.33334 2.45343 8.28945 2.37529 8.21131C2.29715 8.13317 2.25326 8.02718 2.25326 7.91668V5.00001H8.91992V7.91668ZM8.91992 4.16668H2.25326V2.91668C2.25326 2.80617 2.29715 2.70019 2.37529 2.62205C2.45343 2.54391 2.55942 2.50001 2.66992 2.50001H3.50326V2.91668C3.50326 3.02718 3.54715 3.13316 3.62529 3.2113C3.70343 3.28944 3.80942 3.33334 3.91992 3.33334C4.03043 3.33334 4.13641 3.28944 4.21455 3.2113C4.29269 3.13316 4.33659 3.02718 4.33659 2.91668V2.50001H6.83659V2.91668C6.83659 3.02718 6.88049 3.13316 6.95863 3.2113C7.03677 3.28944 7.14275 3.33334 7.25326 3.33334C7.36376 3.33334 7.46974 3.28944 7.54788 3.2113C7.62602 3.13316 7.66992 3.02718 7.66992 2.91668V2.50001H8.50326C8.61376 2.50001 8.71974 2.54391 8.79788 2.62205C8.87602 2.70019 8.91992 2.80617 8.91992 2.91668V4.16668Z" fill="#B2101A"/>
</g>
</svg>
