<svg width="50" height="50" viewBox="0 0 50 50" fill="none" xmlns="http://www.w3.org/2000/svg">
<path id="Vector" d="M27.5714 0.00307599C29.3958 -0.00392457 31.2201 0.0144107 33.0439 0.0580762L33.5289 0.0755761C34.0889 0.0955761 34.6414 0.120576 35.3089 0.150576C37.9689 0.275576 39.7839 0.695576 41.3764 1.31308C43.0264 1.94808 44.4164 2.80808 45.8064 4.19808C47.0774 5.44709 48.061 6.95794 48.6889 8.62558C49.3064 10.2181 49.7264 12.0356 49.8514 14.6956C49.8814 15.3606 49.9064 15.9156 49.9264 16.4756L49.9414 16.9606C49.9859 18.7836 50.005 20.6071 49.9989 22.4306L50.0014 24.2956V27.5706C50.0076 29.3949 49.9884 31.2193 49.9439 33.0431L49.9289 33.5281C49.9089 34.0881 49.8839 34.6406 49.8539 35.3081C49.7289 37.9681 49.3039 39.7831 48.6889 41.3756C48.0631 43.045 47.0792 44.5571 45.8064 45.8056C44.5564 47.0764 43.0447 48.06 41.3764 48.6881C39.7839 49.3056 37.9689 49.7256 35.3089 49.8506C34.6414 49.8806 34.0889 49.9056 33.5289 49.9256L33.0439 49.9406C31.2201 49.985 29.3958 50.0042 27.5714 49.9981L25.7064 50.0006H22.4339C20.6096 50.0067 18.7853 49.9876 16.9614 49.9431L16.4764 49.9281C15.883 49.9066 15.2896 49.8816 14.6964 49.8531C12.0364 49.7281 10.2214 49.3031 8.62644 48.6881C6.95815 48.0614 5.44704 47.0776 4.19894 45.8056C2.92656 44.5563 1.942 43.0445 1.31394 41.3756C0.696443 39.7831 0.276442 37.9681 0.151442 35.3081C0.1236 34.7149 0.0985994 34.1215 0.0764424 33.5281L0.0639427 33.0431C0.0178517 31.2193 -0.00298387 29.3949 0.0014425 27.5706V22.4306C-0.00553491 20.6071 0.0128004 18.7836 0.0564427 16.9606L0.0739426 16.4756C0.0939426 15.9156 0.118943 15.3606 0.148943 14.6956C0.273943 12.0331 0.693942 10.2206 1.31144 8.62558C1.93987 6.95713 2.92635 5.44669 4.20144 4.20058C5.44868 2.92746 6.95885 1.94201 8.62644 1.31308C10.2214 0.695576 12.0339 0.275576 14.6964 0.150576L16.4764 0.0755761L16.9614 0.0630764C18.7844 0.0170084 20.6079 -0.00382713 22.4314 0.00057617L27.5714 0.00307599ZM25.0014 12.5031C23.3452 12.4797 21.7008 12.7856 20.1639 13.4032C18.6269 14.0209 17.2281 14.9378 16.0486 16.1007C14.8691 17.2637 13.9324 18.6494 13.2932 20.1775C12.6539 21.7055 12.3247 23.3454 12.3247 25.0018C12.3247 26.6582 12.6539 28.2981 13.2932 29.8262C13.9324 31.3542 14.8691 32.74 16.0486 33.9029C17.2281 35.0659 18.6269 35.9828 20.1639 36.6004C21.7008 37.218 23.3452 37.524 25.0014 37.5006C28.3166 37.5006 31.4961 36.1836 33.8403 33.8394C36.1845 31.4952 37.5014 28.3158 37.5014 25.0006C37.5014 21.6854 36.1845 18.5059 33.8403 16.1617C31.4961 13.8175 28.3166 12.5031 25.0014 12.5031ZM25.0014 17.5031C25.9977 17.4847 26.9876 17.6651 27.9134 18.0336C28.8392 18.4021 29.6823 18.9514 30.3934 19.6494C31.1045 20.3474 31.6694 21.1802 32.055 22.0989C32.4407 23.0177 32.6394 24.0041 32.6396 25.0006C32.6398 25.997 32.4414 26.9835 32.056 27.9024C31.6707 28.8213 31.106 29.6542 30.3952 30.3524C29.6843 31.0507 28.8414 31.6003 27.9158 31.9691C26.9901 32.3379 26.0002 32.5186 25.0039 32.5006C23.0148 32.5006 21.1072 31.7104 19.7006 30.3039C18.2941 28.8974 17.5039 26.9897 17.5039 25.0006C17.5039 23.0115 18.2941 21.1038 19.7006 19.6973C21.1072 18.2908 23.0148 17.5006 25.0039 17.5006L25.0014 17.5031ZM38.1264 8.75308C37.3199 8.78536 36.5572 9.12845 35.998 9.7105C35.4387 10.2926 35.1264 11.0684 35.1264 11.8756C35.1264 12.6827 35.4387 13.4586 35.998 14.0406C36.5572 14.6227 37.3199 14.9658 38.1264 14.9981C38.9552 14.9981 39.7501 14.6688 40.3362 14.0828C40.9222 13.4967 41.2514 12.7019 41.2514 11.8731C41.2514 11.0443 40.9222 10.2494 40.3362 9.66337C39.7501 9.07732 38.9552 8.74808 38.1264 8.74808V8.75308Z" fill="#F8F8F8"/>
</svg>
